P2
# feep.pgm
24 7
255
0 0 0 0 0 0 0 0 0 0 0 0 0 0 0 0 0 0 0 0 0 0 0 0
0 80 80 80 80 0 0 120 120 120 120 0 0 160 160 160 160 0 0 200 200 200 200 0
0 80 0 0 0 0 0 120 0 0 0 0 0 160 0 0 0 0 0 200 0 0 200 0
0 80 80 80 0 0 0 120 120 120 0 0 0 160 160 160 0 0 0 200 200 200 200 0
0 80 0 0 0 0 0 120 0 0 0 0 0 160 0 0 0 0 0 200 0 0 0 0
0 80 0 0 0 0 0 120 120 120 120 0 0 160 160 160 160 0 0 200 0 0 0 0
0 0 0 0 0 0 0 0 0 0 0 0 0 0 0 0 0 0 0 0 0 0 0 0